inDegrees=yes
name=ik_S53_A13_T03
DataType=double
version=3
OpenSimVersion=4.3-2021-08-27-4bc7ad9
endheader
time	pelvis_tilt	pelvis_list	pelvis_rotation	pelvis_tx	pelvis_ty	pelvis_tz	hip_flexion_r	hip_adduction_r	hip_rotation_r	knee_angle_r	knee_angle_r_beta	ankle_angle_r	subtalar_angle_r	mtp_angle_r	hip_flexion_l	hip_adduction_l	hip_rotation_l	knee_angle_l	knee_angle_l_beta	ankle_angle_l	subtalar_angle_l	mtp_angle_l	lumbar_extension	lumbar_bending	lumbar_rotation	arm_flex_r	arm_add_r	arm_rot_r	elbow_flex_r	pro_sup_r	wrist_flex_r	wrist_dev_r	arm_flex_l	arm_add_l	arm_rot_l	elbow_flex_l	pro_sup_l	wrist_flex_l	wrist_dev_l
6.199999999999956	0.5545333867045464	1.49707369081927	-10.6753880152249	0	0.9399999999999999	0	26.95909100714487	-8.935790202474832	-7.947844247879518	31.7138635343117	0.5535113372019048	0	0	0	26.95909100714487	-8.935790202474832	-7.947844247879518	31.7138635343117	0.5535113372019048	0	0	0	0.5034001337510202	-0.2376929115071117	4.821164487871754	52.07502434744102	-19.3783556265314	17.32993367994573	102.2707360155258	74.53890536981895	0	0	70.65474760880385	-7.627464801944259	24.50035954239348	11.82948593989966	84.35393797275425	0	0
6.219999999999955	0.5486253108104348	1.476333046624819	-10.70231055108597	0	0.9399999999999999	0	26.96920429068089	-8.937729649455465	-7.950257620360997	31.7234178632048	0.5536780916989078	0	0	0	26.96920429068089	-8.937729649455465	-7.950257620360997	31.7234178632048	0.5536780916989078	0	0	0	0.49991936125766	-0.2585066456878663	4.898898969694689	52.40935933988108	-18.53523604943543	16.56504023159871	99.24139190690875	73.39044063926097	0	0	70.77580460832688	-7.404121954358767	24.34490813814612	12.12679354595822	83.81755051004589	0	0
6.239999999999955	0.5455316341674048	1.4563270417223	-10.85540119701296	0	0.9399999999999999	0	26.97884711495643	-8.939569788313493	-7.952552103948113	31.73255857054724	0.5538376271379947	0	0	0	26.97884711495643	-8.939569788313493	-7.952552103948113	31.73255857054724	0.5538376271379947	0	0	0	0.4943686539420021	-0.2769225010225521	5.109884431473165	52.31813865600858	-18.41322092100315	16.34013291831009	96.83131423227458	72.19032228810812	0	0	70.73956414008227	-7.296494166711315	24.38393041376871	13.10522698469593	82.30379908601853	0	0
6.259999999999954	0.5472231366304655	1.44228606953116	-11.01495905871695	0	0.9399999999999999	0	26.98929707139149	-8.94156894228602	-7.955043049097723	31.74243254753216	0.5540099605466478	0	0	0	26.98929707139149	-8.94156894228602	-7.955043049097723	31.74243254753216	0.5540099605466478	0	0	0	0.4932769980499012	-0.2887294411099871	5.292618932201701	52.22951980874817	-18.27807763864343	16.17438952655778	94.32473137193099	71.55282687314502	0	0	70.79095511182878	-7.217985084249105	24.22206440645189	13.61625701739223	81.54000141325355	0	0
6.279999999999954	0.5505096923839198	1.420163412278307	-11.25975367103479	0	0.9399999999999999	0	27.00227722560809	-8.944060368962788	-7.958144309885381	31.75464629496688	0.5542231306533906	0	0	0	27.00227722560809	-8.944060368962788	-7.958144309885381	31.75464629496688	0.5542231306533906	0	0	0	0.4922730128331926	-0.3035746398028067	5.612784501151665	52.07536946606604	-18.0652219179045	15.79496284500683	89.38865721652945	70.00859889586607	0	0	70.78167943162204	-7.141263364213133	24.28348592237244	13.90128058340495	81.06443630044473	0	0
6.299999999999954	0.5406720010285138	1.383517139104876	-11.20774242539418	0	0.9399999999999999	0	27.01252001605158	-8.946008449248703	-7.960577999036918	31.76435420252089	0.5543925656036872	0	0	0	27.01252001605158	-8.946008449248703	-7.960577999036918	31.76435420252089	0.5543925656036872	0	0	0	0.4873547601505483	-0.3405449426346635	5.69881894988802	51.9858153473381	-18.01394383911844	15.51442640795038	86.88848688965335	67.44984488627303	0	0	70.77049021169337	-6.99742907330224	24.39459551201425	14.47952250766754	80.19870185556826	0	0
6.319999999999953	0.5705833922341991	1.347383426383394	-11.34704034449166	0	0.9399999999999999	0	27.01907411832978	-8.947237581982465	-7.962121869816043	31.77063834289444	0.5545022445438631	0	0	0	27.01907411832978	-8.947237581982465	-7.962121869816043	31.77063834289444	0.5545022445438631	0	0	0	0.5184241107803607	-0.366076041061598	5.92264776024679	51.82029737062898	-17.9448649576775	15.25635490900259	84.31215563218338	65.28929914306863	0	6.82976950136954e-37	70.68159690059036	-6.863905090144772	24.4859807351851	15.32966131050804	79.03743539658549	0	6.82976950136954e-37
6.339999999999953	0.5314311808677875	1.33713289910592	-11.28730041035946	0	0.9399999999999999	0	27.02351369509379	-8.948068567568503	-7.963166538519322	31.77489932931218	0.5545766127862356	0	0	0	27.02351369509379	-8.948068567568503	-7.963166538519322	31.77489932931218	0.5545766127862356	0	0	0	0.4817304380375363	-0.3833707001244386	5.943927471061657	51.8963539655709	-17.99335888053423	15.19924455268094	84.29727429850712	65.31530392033621	0	0	70.76678200022131	-6.766728072729204	24.5222421036047	15.64611879759147	78.5810430526866	0	0
6.359999999999952	0.5307536063514755	1.3051528735126	-11.23290286665759	0	0.9399999999999999	0	27.03106100747316	-8.94949518307574	-7.964953579736752	31.78207777118885	0.5547019002321464	0	0	0	27.03106100747316	-8.94949518307574	-7.964953579736752	31.78207777118885	0.5547019002321464	0	0	0	0.4864285862973661	-0.4138917857893391	6.011265093895234	51.84601152037825	-18.04708512854083	15.06579865000164	84.2852824811293	65.30694437219228	0	0	70.71566709533978	-6.639010421110251	24.64662971248974	16.54955982187564	77.19883242116991	0	0
6.379999999999952	0.5259149779783335	1.270551381944854	-11.12370877135455	0	0.9399999999999999	0	27.036541476135	-8.950528210800986	-7.966249152063952	31.78729947147764	0.5547930360947382	0	0	0	27.036541476135	-8.950528210800986	-7.966249152063952	31.78729947147764	0.5547930360947382	0	0	0	0.4875813716608846	-0.4480364111889886	6.067889093604394	51.79800651095616	-18.13150079122881	14.90061555069578	84.27724855238337	65.31234966589567	0	0	70.71328391109328	-6.464881955984291	24.7672884588941	17.00533664463216	76.74800284020472	0	0
6.399999999999952	0.5328983651639928	1.229131663024953	-11.70690178063953	0	0.9399999999999999	0	27.06718001596247	-8.95637956776654	-7.973558956909036	31.8160176490555	0.5552942628486441	0	0	0	27.06718001596247	-8.95637956776654	-7.973558956909036	31.8160176490555	0.5552942628486441	0	0	0	0.4864584822935134	-0.4639202503955401	6.773084523333208	51.62534570772844	-17.90152089240821	14.21784358900658	74.93439950116588	63.63858706789185	0	0	70.6978984391906	-6.354122557610966	24.87148087928259	17.44030205351758	76.2661342259922	0	0
6.419999999999951	0.526624872826826	1.196223376197023	-11.5914103308054	0	0.9399999999999999	0	27.07711919785242	-8.958276977979292	-7.975929148598175	31.82534649247861	0.5554570818817804	0	0	0	27.07711919785242	-8.958276977979292	-7.975929148598175	31.82534649247861	0.5554570818817804	0	0	0	0.4880089074378648	-0.4969715034148208	6.830514853346713	51.55215626993608	-17.94410442645174	13.90375283447685	72.72777737950283	64.25905272132223	0	0	70.80866746161388	-6.133454463667641	23.81691423816227	17.47851393711191	77.22356685610252	0	0
6.439999999999951	0.5183430586495837	1.172808640244639	-11.47292491774518	0	0.9399999999999999	0	27.08153525626429	-8.959091189427614	-7.976959681328524	31.8296177482016	0.5555316293573412	0	0	0	27.08153525626429	-8.959091189427614	-7.976959681328524	31.8296177482016	0.5555316293573412	0	0	0	0.4834019705858859	-0.5209728949929149	6.900627188590871	51.52131865993347	-18.06692131454534	13.74192562270353	72.70297329824734	64.28352589649667	0	0	70.79405436494982	-5.886655208206451	23.93230598161066	17.72724223435308	76.90198030668505	0	0
6.45999999999995	0.5205026470579188	1.141672878046544	-11.65473417349121	0	0.9399999999999999	0	27.09246476412322	-8.961160879110114	-7.979553624542942	31.83993567824777	0.5557117112086374	0	0	0	27.09246476412322	-8.961160879110114	-7.979553624542942	31.83993567824777	0.5557117112086374	0	0	0	0.4848051112245261	-0.5460676799143986	7.217305076179406	51.42606556112948	-18.03002912058043	13.43782364404339	68.7180056120161	63.84082551882489	0	0	70.77570561781599	-5.773805947697644	24.04219293354416	17.98023385918633	76.54473000386011	0	0
6.47999999999995	0.5179563973985452	1.121089829876746	-11.5563926898801	0	0.9399999999999999	0	27.09567865447631	-8.961758429118547	-7.980307814341311	31.84301660341809	0.5557654834968672	0	0	0	27.09567865447631	-8.961758429118547	-7.980307814341311	31.84301660341809	0.5557654834968672	0	0	0	0.4856004568177367	-0.5663071606840474	7.265946439418169	51.38835251937584	-18.11693868877608	13.31537603587445	68.69092903196642	63.85731409418292	0	0	70.74404692716091	-5.561227938641111	24.04568068609474	18.08079492086318	76.58365879565038	0	0
6.499999999999949	0.517226778363598	1.09834854628268	-11.41963030380087	0	0.9399999999999999	0	27.15429170523797	-8.970810426137705	-7.992795565279737	31.89917883662552	0.5567456993816096	0	0	0	27.15429170523797	-8.970810426137705	-7.992795565279737	31.89917883662552	0.5567456993816096	0	0	0	0.4880835047225872	-0.5844909669170913	7.291467118895094	51.33468524861772	-18.22278387962939	13.15546786138266	68.68662824900049	63.86797444379761	0	0	70.73536394315286	-5.431040329580846	24.13476859806049	18.23839723039178	76.74848917933387	0	0
